<svg width="21" height="21" viewBox="0 0 21 21" fill="none" xmlns="http://www.w3.org/2000/svg">
<path id="cross" d="M12.698 19.5325L12.6228 13.0237C12.6555 12.7748 12.8545 12.5478 13.1149 12.4976L19.6387 12.4266C19.8882 12.4594 20.0872 12.2323 20.1308 11.9004L20.1007 8.26722C20.1335 8.01832 19.9058 7.81959 19.5731 7.77587L13.0493 7.84688C12.7998 7.81408 12.5721 7.61536 12.5217 7.35553L12.4464 0.846713C12.4792 0.597808 12.2515 0.399078 11.9188 0.355357L8.2772 0.38317C8.0277 0.350379 7.82866 0.577422 7.78504 0.909296L7.86028 7.41811C7.82756 7.66701 7.62852 7.89406 7.36811 7.94423L0.844312 8.01526C0.594812 7.98247 0.395766 8.20951 0.352149 8.54138L0.382245 12.1746C0.349532 12.4235 0.577234 12.6222 0.909901 12.666L7.4337 12.5949C7.6832 12.6277 7.9109 12.8265 7.96136 13.0863L8.03654 19.5951C8.00383 19.844 8.23153 20.0427 8.5642 20.0865L12.2058 20.0587C12.4662 20.0085 12.6652 19.7814 12.698 19.5325Z" fill="#FDD08D"/>
</svg>
